<svg width="24" height="24" viewBox="0 0 24 24" fill="none" xmlns="http://www.w3.org/2000/svg">
<path d="M4.50051 18.75C4.50051 18.75 8.25051 18 9.00051 15.75C9.00051 15.75 3.00051 13.5 4.50051 5.25C4.50051 5.25 7.50051 9 12.0005 9.75V8.25027C12.0006 7.38867 12.2973 6.55337 12.8408 5.8848C13.3843 5.21624 14.1414 4.75517 14.9848 4.57913C15.8282 4.40309 16.7065 4.5228 17.4721 4.91814C18.2376 5.31348 18.8437 5.96034 19.1885 6.74997L22.5005 6.75L19.5005 9.75C19.5005 15 15.7505 20.25 9.00051 20.25C6.00051 20.25 4.50051 18.75 4.50051 18.75Z" stroke="#0D0E10" stroke-width="1.5" stroke-linecap="round" stroke-linejoin="round"/>
</svg>
