<svg width="19" height="19" viewBox="0 0 19 19" fill="none" xmlns="http://www.w3.org/2000/svg">
<path d="M16.75 1H1.75C1.33579 1 1 1.33579 1 1.75V16.75C1 17.1642 1.33579 17.5 1.75 17.5H16.75C17.1642 17.5 17.5 17.1642 17.5 16.75V1.75C17.5 1.33579 17.1642 1 16.75 1Z" stroke="white" stroke-opacity="0.8" stroke-width="1.5" stroke-linecap="round" stroke-linejoin="round"/>
<path d="M8.5 7.75V13.75" stroke="white" stroke-opacity="0.8" stroke-width="1.5" stroke-linecap="round" stroke-linejoin="round"/>
<path d="M5.5 7.75V13.75" stroke="white" stroke-opacity="0.8" stroke-width="1.5" stroke-linecap="round" stroke-linejoin="round"/>
<path d="M8.5 10.375C8.5 9.67881 8.77656 9.01113 9.26884 8.51884C9.76113 8.02656 10.4288 7.75 11.125 7.75C11.8212 7.75 12.4889 8.02656 12.9812 8.51884C13.4734 9.01113 13.75 9.67881 13.75 10.375V13.75" stroke="white" stroke-opacity="0.8" stroke-width="1.5" stroke-linecap="round" stroke-linejoin="round"/>
<path d="M5.5 5.875C6.12132 5.875 6.625 5.37132 6.625 4.75C6.625 4.12868 6.12132 3.625 5.5 3.625C4.87868 3.625 4.375 4.12868 4.375 4.75C4.375 5.37132 4.87868 5.875 5.5 5.875Z" fill="white" fill-opacity="0.8"/>
</svg>
