<svg width="20" height="18" viewBox="0 0 20 18" fill="none" xmlns="http://www.w3.org/2000/svg">
<path d="M1.24074 15.25C1.24074 15.25 4.99074 14.5 5.74074 12.25C5.74074 12.25 -0.259259 10 1.24074 1.75C1.24074 1.75 4.24074 5.5 8.74074 6.25V4.75027C8.74082 3.88867 9.03755 3.05337 9.58103 2.3848C10.1245 1.71624 10.8816 1.25517 11.725 1.07913C12.5685 0.903086 13.4468 1.0228 14.2123 1.41814C14.9779 1.81348 15.584 2.46034 15.9287 3.24997L19.2407 3.25L16.2407 6.25C16.2407 11.5 12.4907 16.75 5.74074 16.75C2.74074 16.75 1.24074 15.25 1.24074 15.25Z" stroke="white" stroke-opacity="0.8" stroke-width="1.5" stroke-linecap="round" stroke-linejoin="round"/>
</svg>
