<svg width="118" height="29" fill="none" xmlns="http://www.w3.org/2000/svg"><path d="M117.833 19.94c-.154-.205-.284-.43-.426-.645a711.42 711.42 0 0 0-1.003-1.517c-.37.397-.89.696-1.386 1.014a5.543 5.543 0 0 1-1.454.311c-.975.076-1.917-.034-2.727-.642-.948-.711-1.316-2.057-.953-3.405.297-1.103 1.226-1.853 2.499-2.007a5.508 5.508 0 0 1 2.895.433c.433.253.864.505 1.19.83.308-.498.631-1.023.953-1.548.135-.22.257-.448.405-.659.108-.153.103-.262-.035-.391-.508-.473-.917-.777-1.389-1.01-.068-.065-.214-.119-.504-.236-2.358-.952-4.724-.95-7.034.156-1.32.633-2.236 1.676-2.753 3.052-.365.975-.463 1.987-.363 3.015.211 2.207 1.258 3.877 3.262 4.886 1.484.747 3.074.88 4.7.668a7.345 7.345 0 0 0 2.07-.561c.017-.005.033-.006.051-.013.778-.29 1.282-.645 1.98-1.338.134-.133.134-.242.022-.393Z" fill="#06252D"/><path fill-rule="evenodd" clip-rule="evenodd" d="M63.221 17.364c4.165 0 6.776-2.364 6.776-6.079 0-3.625-2.522-5.989-6.732-5.989h-9.249v16.683h4.277v-4.615h4.928Zm-.563-8.646c1.868 0 2.949 1.036 2.949 2.68 0 1.62-1.126 2.656-3.062 2.656h-4.252V8.718h4.365Z" fill="#06252D"/><path d="M72.25 21.979h4.278V5.296H72.25v16.683Z" fill="#06252D"/><path fill-rule="evenodd" clip-rule="evenodd" d="M96.035 16.869h8.195c.045-.338.09-.902.09-1.351 0-3.558-2.364-5.787-6.011-5.787-3.895 0-6.417 2.5-6.417 6.282 0 3.94 2.792 6.303 7.16 6.303 1.914 0 3.714-.45 4.638-.945l-.473-2.882c-.968.451-2.409.788-3.715.788-2.072 0-3.13-.743-3.467-2.408Zm2.229-4.323c1.44 0 2.251.833 2.251 2.139h-4.548c.225-1.508 1.082-2.14 2.297-2.14Z" fill="#06252D"/><path d="M79.837 18.28c.438.168.879.347 1.328.507 1.005.356 2.034.643 3.115.69.406.018.824-.026 1.223-.103.364-.07.627-.3.657-.674.027-.347-.21-.564-.517-.679-.563-.209-1.144-.377-1.716-.561-.894-.29-1.828-.501-2.673-.882-2-.902-2.675-3.05-1.564-4.78.582-.907 1.5-1.398 2.561-1.68 1.862-.494 3.737-.397 5.605-.038.572.11 1.128.295 1.685.466.08.024.181.164.172.24-.103.854-.226 1.705-.345 2.556-.002.016-.023.03-.05.062-.38-.113-.764-.246-1.158-.343-1.2-.3-2.416-.496-3.668-.363-.153.016-.307.04-.455.08-.296.08-.576.2-.622.525-.048.331.194.523.474.635.5.2 1.014.371 1.53.534.877.278 1.763.53 2.638.814.25.08.481.216.71.347 1.222.701 1.72 1.745 1.591 3.04-.172 1.733-1.312 2.903-3.237 3.367-1.994.479-3.973.33-5.927-.182-.68-.178-1.329-.46-1.984-.711-.08-.03-.177-.177-.158-.244.23-.86.482-1.716.729-2.573.004-.015.028-.026.056-.05Z" fill="#06252D"/><path fill-rule="evenodd" clip-rule="evenodd" d="M52.067 21.893h-4.72l-1.07-2.29h-8.66l-.998 2.29h-4.67L39.95 5.055h4.14l7.977 16.838ZM40.81 12.275l-1.735 3.98h5.637l-1.884-4.03a60.254 60.254 0 0 1-1.034-2.348l-.199.49c-.192.477-.34.845-.785 1.908Z" fill="#06252D"/><path fill-rule="evenodd" clip-rule="evenodd" d="M0 6.446 11.714 0l12.02 6.435v5.263a16.04 16.04 0 0 1-6.953 13.255v-3.469a13.445 13.445 0 0 0 2-2.35 13.35 13.35 0 0 0 2.242-7.438V8.058l-9.228-4.94-.062-.033L2.78 8.01l-.067.037v3.798a13.375 13.375 0 0 0 7.675 12.116v-6.665c-1.592-.558-2.744-2.06-2.744-3.842a4.089 4.089 0 0 1 4.083-4.084 4.089 4.089 0 0 1 4.085 4.084c0 1.781-1.151 3.284-2.744 3.841v9.562l-1.412.627-1.955-.849a16.098 16.098 0 0 1-7.06-5.947A16.082 16.082 0 0 1 0 11.844V6.446Zm13.114 7.009a1.387 1.387 0 1 0-2.774.002 1.387 1.387 0 0 0 2.774-.002Z" fill="#025C7A"/></svg>